<svg width="32" height="32" viewBox="0 0 32 32" fill="none" xmlns="http://www.w3.org/2000/svg">
<path d="M32 15.9624V15.5554C31.7558 6.76318 24.4289 -0.238027 15.6367 0.00620067C6.84452 0.250429 -0.238096 7.57727 0.00613196 16.3695C0.25036 25.0803 7.33297 32.0001 15.9624 32.0001H31.9186V16.1252C32 16.0438 32 16.0438 32 15.9624Z" fill="#00AAFF"/>
<path fill-rule="evenodd" clip-rule="evenodd" d="M29.0692 17.0207H23.6962C23.452 17.0207 23.2077 16.8579 23.2077 16.4508V15.4739C23.2077 15.3111 23.2892 15.1483 23.3706 14.9855L26.6269 10.0195C26.6676 10.0195 26.688 10.0195 26.6982 10.0093C26.7083 9.99915 26.7083 9.97879 26.7083 9.93809C26.7083 9.85668 26.6269 9.85668 26.5455 9.85668H23.5334C23.3706 9.85668 23.2892 9.77527 23.2892 9.61245V8.3099C23.2892 8.14708 23.3706 8.06567 23.5334 8.06567H28.6622C28.9064 8.06567 29.1506 8.14708 29.1506 8.39131V9.53104C29.1506 9.69386 29.1506 9.77527 29.0692 9.85668L25.7314 14.9855C25.6846 15.0323 25.6647 15.0522 25.6563 15.0761C25.65 15.0938 25.65 15.1137 25.65 15.1483C25.65 15.2297 25.7314 15.2297 25.8128 15.2297H29.0692C29.232 15.2297 29.3134 15.3925 29.3134 15.4739V16.7765C29.3134 16.9393 29.232 17.0207 29.0692 17.0207ZM13.6828 16.8579C12.8688 17.0207 11.9733 17.1021 11.0777 17.1021C9.7752 17.1021 7.73997 16.3694 7.57715 13.3573V11.8919C7.57715 8.87977 9.44956 8.14708 11.1592 8.14708C11.9733 8.14708 12.7873 8.22849 13.6014 8.39131C13.7643 8.39131 13.8457 8.47272 13.8457 8.55413V9.77527C13.8457 9.93809 13.7643 9.93809 13.6828 9.93809C13.4361 9.93809 13.1282 9.92282 12.7792 9.90551C12.3222 9.88285 11.7944 9.85668 11.2406 9.85668C10.2637 9.85668 9.69379 10.3451 9.69379 11.8919V13.2759C9.69379 14.9041 10.4265 15.3111 10.9963 15.3111H11.8918V12.6246C11.8918 12.4618 11.9733 12.3804 12.1361 12.3804H13.6828C13.8457 12.3804 13.9271 12.4618 13.9271 12.6246V16.6137C13.9271 16.7765 13.8457 16.8579 13.6828 16.8579ZM9.12393 24.3475C9.12393 24.4289 9.20534 24.5104 9.28674 24.5104H10.3451C10.4265 24.5104 10.5079 24.4289 10.5079 24.3475V19.6258H11.8104C11.8918 19.6258 11.9733 19.5444 11.9733 19.463V18.6489C11.9733 18.5675 11.8918 18.4861 11.8104 18.4861H7.73997C7.65856 18.4861 7.57715 18.5675 7.57715 18.6489V19.463C7.57715 19.5444 7.65856 19.6258 7.73997 19.6258H9.04252L9.12393 24.3475ZM13.52 23.045L13.1944 24.3475C13.1944 24.3882 13.174 24.4289 13.1537 24.4697C13.1333 24.5104 13.113 24.5511 13.113 24.5918H11.9733C11.8918 24.5918 11.8104 24.5104 11.8104 24.4289L13.0316 19.3816C13.1944 18.8117 13.7643 18.4047 14.4155 18.4861C14.9854 18.4047 15.5553 18.8117 15.7181 19.3816L16.9392 24.4289C16.9392 24.4289 16.8578 24.5104 16.7764 24.5104H15.6367C15.5553 24.5104 15.4739 24.4289 15.4739 24.3475L15.1482 23.045H13.52ZM14.2527 19.7072C14.2527 19.6665 14.2527 19.6462 14.2629 19.636C14.2731 19.6258 14.2934 19.6258 14.3341 19.6258C14.3748 19.6258 14.3952 19.6258 14.4054 19.636C14.4155 19.6462 14.4155 19.6665 14.4155 19.7072L14.904 21.9867H13.6828L14.2527 19.7072ZM22.3122 24.3475V24.4289L22.1494 24.5918H20.9283C20.8469 24.5918 20.7655 24.5104 20.7655 24.4289L19.7071 22.3937H19.0559V24.4289C19.0559 24.5104 18.9745 24.5918 18.893 24.5918H17.8347C17.7533 24.5918 17.6719 24.5104 17.6719 24.4289V18.9745C17.6719 18.6489 17.8347 18.5675 18.079 18.5675C18.6488 18.4861 19.1373 18.4861 19.7071 18.4861C21.0911 18.4861 22.1494 18.8931 22.1494 20.3585V20.4399C22.1494 21.1726 21.7424 21.8239 21.0911 22.0681L22.3122 24.3475ZM20.6841 20.4399C20.6841 21.0098 20.4398 21.254 19.5443 21.254H18.9745V19.6258H19.6257C20.277 19.6258 20.6841 19.87 20.6841 20.3585V20.4399ZM24.5917 24.3475C24.5917 24.4289 24.5103 24.5104 24.4289 24.5104H23.3706C23.2892 24.5104 23.2077 24.4289 23.2077 24.3475V18.6489C23.2077 18.5675 23.2892 18.4861 23.3706 18.4861H24.4289C24.5103 18.4861 24.5917 18.5675 24.5917 18.6489V24.3475ZM29.232 18.4861C28.7436 18.4047 28.1737 18.4047 27.6853 18.4047C26.6269 18.4047 25.7314 18.6489 25.7314 20.1143V24.3475C25.7314 24.4289 25.8128 24.5104 25.8942 24.5104H26.9526C27.034 24.5104 27.1154 24.4289 27.1154 24.3475V21.9867H29.1506C29.232 21.9867 29.3134 21.9053 29.3134 21.8239V21.0098C29.3134 20.9283 29.232 20.8469 29.1506 20.8469H27.034V20.1143C27.034 19.7072 27.1968 19.5444 27.5224 19.5444H29.1506C29.232 19.5444 29.3134 19.463 29.3134 19.3816V18.6489C29.3948 18.5675 29.3134 18.4861 29.232 18.4861ZM9.93802 26.9526C9.93802 27.2783 9.7752 27.6039 9.44956 27.6853L10.1822 28.7436H9.53097C9.44956 28.7436 9.44956 28.6622 9.44956 28.6622L8.96111 27.7667H8.63547V28.6622C8.63547 28.7436 8.55406 28.7436 8.55406 28.7436H8.0656C7.9842 28.7436 7.9842 28.6622 7.9842 28.6622V26.3014C7.9842 26.22 8.0656 26.1385 8.14701 26.1385C8.39124 26.0571 8.63547 26.0571 8.8797 26.0571C9.44956 26.0571 9.93802 26.22 9.93802 26.8712V26.9526ZM9.28674 26.9526C9.28674 27.1969 9.20534 27.2783 8.79829 27.2783H8.55406V26.627H8.79829C9.12393 26.627 9.28674 26.7084 9.28674 26.9526ZM11.4207 26.0917C11.5415 26.1139 11.676 26.1385 11.8104 26.1385H11.8918V26.4642C11.8918 26.5456 11.8104 26.5456 11.8104 26.5456H11.0777C10.9149 26.5456 10.8335 26.627 10.8335 26.7898V27.1155H11.729C11.8104 27.1155 11.8104 27.1969 11.8104 27.1969V27.5225C11.8104 27.6039 11.729 27.6039 11.729 27.6039H10.8335V28.011C10.8335 28.1738 10.9149 28.2552 11.0777 28.2552H11.8104C11.8918 28.2552 11.8918 28.3366 11.8918 28.3366V28.4994C11.8918 28.5401 11.8918 28.5605 11.8817 28.5707C11.8715 28.5808 11.8511 28.5808 11.8104 28.5808C11.6476 28.6622 11.4034 28.6622 11.1592 28.6622C10.6707 28.6622 10.2637 28.5808 10.2637 27.9296V26.7898C10.2637 26.1385 10.6707 26.0571 11.1592 26.0571C11.2323 26.0571 11.322 26.0736 11.4207 26.0917ZM11.1592 25.4059C11.1185 25.4059 11.0981 25.4059 11.0879 25.416C11.0777 25.4262 11.0777 25.4466 11.0777 25.4873L10.7521 25.8943H11.2406L11.6476 25.4873H11.1592V25.4059ZM13.2758 26.0571C13.52 26.0571 13.7643 26.0571 14.0085 26.1385H14.1713V26.5456C14.1713 26.627 14.0899 26.627 14.0899 26.627H13.3572C13.0316 26.627 12.8688 26.7084 12.8688 27.1969V27.6039C12.8688 28.0924 13.113 28.1738 13.2758 28.1738H13.52V27.3597C13.52 27.2783 13.6014 27.2783 13.6014 27.2783H14.0085C14.0899 27.2783 14.0899 27.3597 14.0899 27.3597V28.5808C14.0899 28.6215 14.0899 28.6419 14.0797 28.6521C14.0695 28.6622 14.0492 28.6622 14.0085 28.6622C13.7643 28.7436 13.4386 28.7436 13.1944 28.7436H13.0316C12.5431 28.6622 12.1361 28.1738 12.2175 27.6039V26.9526C12.2175 26.3828 12.7059 25.9757 13.2758 26.0571ZM15.311 28.2552C15.1482 28.2552 15.0668 28.1738 15.0668 28.011V26.22C15.0668 26.22 15.0668 26.1385 14.9854 26.1385H14.4969C14.4969 26.1385 14.4155 26.1385 14.4155 26.22V28.0924C14.4155 28.7436 14.8226 28.8251 15.311 28.8251C15.4739 28.8251 15.7181 28.8251 15.8809 28.7436C15.9216 28.7436 15.942 28.7436 15.9521 28.7335C15.9623 28.7233 15.9623 28.7029 15.9623 28.6622V28.3366C16.0437 28.3366 16.0437 28.2552 15.9623 28.2552H15.311ZM17.445 26.0917C17.5658 26.1139 17.7003 26.1385 17.8347 26.1385V26.4642C17.8347 26.5456 17.7533 26.5456 17.7533 26.5456H17.0206C16.8578 26.5456 16.7764 26.627 16.7764 26.7898V27.1155H17.7533C17.8347 27.1155 17.8347 27.1969 17.8347 27.1969V27.5225C17.8347 27.6039 17.7533 27.6039 17.7533 27.6039H16.8578V28.011C16.8578 28.1738 16.9392 28.2552 17.102 28.2552H17.8347C17.9161 28.2552 17.9161 28.3366 17.9161 28.3366V28.4994C17.9161 28.5401 17.9161 28.5605 17.906 28.5707C17.8958 28.5808 17.8754 28.5808 17.8347 28.5808C17.6719 28.6622 17.4277 28.6622 17.1834 28.6622C16.695 28.6622 16.2879 28.5808 16.2879 27.9296V26.7898C16.2879 26.1385 16.695 26.0571 17.1834 26.0571C17.2566 26.0571 17.3463 26.0736 17.445 26.0917ZM20.6026 26.1385H20.277C20.1956 26.1385 20.1142 26.1385 20.1142 26.22L19.5443 27.1969L18.9745 26.22C18.9745 26.1385 18.893 26.1385 18.8116 26.1385H18.4046C18.37 26.1385 18.3501 26.1385 18.3324 26.1448C18.3085 26.1532 18.2886 26.1731 18.2418 26.22V28.6622C18.2418 28.6622 18.2418 28.7436 18.3232 28.7436H18.8116C18.8116 28.7436 18.893 28.7436 18.893 28.6622V27.1969L19.2187 27.7667L19.3001 27.8481H19.6257C19.6664 27.8481 19.6868 27.8481 19.697 27.838C19.7071 27.8278 19.7071 27.8074 19.7071 27.7667L20.0328 27.1969V28.6622C20.0328 28.6622 20.0328 28.7436 20.1142 28.7436H20.6026C20.6026 28.7436 20.6841 28.7436 20.6841 28.6622V26.22C20.6841 26.1793 20.6841 26.1589 20.6739 26.1487C20.6637 26.1385 20.6433 26.1385 20.6026 26.1385ZM22.3295 26.0917C22.4504 26.1139 22.5848 26.1385 22.7193 26.1385V26.4642C22.7193 26.5456 22.6379 26.5456 22.6379 26.5456H21.9052C21.7424 26.5456 21.661 26.627 21.661 26.7898V27.1155H22.6379C22.7193 27.1155 22.7193 27.1969 22.7193 27.1969V27.5225C22.7193 27.6039 22.6379 27.6039 22.6379 27.6039H21.7424V28.011C21.7424 28.1738 21.8238 28.2552 21.9866 28.2552H22.7193C22.8007 28.2552 22.8007 28.3366 22.8007 28.3366V28.4994C22.8007 28.5401 22.8007 28.5605 22.7905 28.5707C22.7803 28.5808 22.76 28.5808 22.7193 28.5808C22.5565 28.6622 22.3122 28.6622 22.068 28.6622C21.5796 28.6622 21.1725 28.5808 21.1725 27.9296V26.7898C21.1725 26.1385 21.5796 26.0571 22.068 26.0571C22.1412 26.0571 22.2308 26.0736 22.3295 26.0917ZM25.243 26.1385H24.8359C24.8359 26.1385 24.7545 26.1385 24.7545 26.22V27.6853L23.9404 26.22C23.9404 26.1385 23.859 26.1385 23.7776 26.1385H23.3706C23.2892 26.1385 23.2077 26.22 23.2077 26.3014V28.7436C23.2077 28.7436 23.2077 28.8251 23.2892 28.8251H23.6962C23.6962 28.8251 23.7776 28.8251 23.7776 28.7436V27.2783L24.5917 28.6622C24.5917 28.7436 24.6731 28.7436 24.7545 28.7436H25.0802C25.1616 28.7436 25.243 28.6622 25.243 28.5808V26.1385ZM25.5686 26.1385H27.3596L27.441 26.627C27.441 26.7084 27.3596 26.7084 27.3596 26.7084H26.7898V28.7436C26.7898 28.8251 26.7083 28.8251 26.7083 28.8251H26.2199C26.1385 28.8251 26.1385 28.7436 26.1385 28.7436V26.7084H25.5686C25.4872 26.7084 25.4872 26.627 25.4872 26.627V26.22C25.4872 26.1385 25.5686 26.1385 25.5686 26.1385ZM28.5808 25.8943L29.0692 25.4059H28.5808C28.5401 25.4059 28.5197 25.4059 28.5095 25.416C28.4993 25.4262 28.4993 25.4466 28.4993 25.4873L28.1737 25.8943H28.5808ZM28.8423 26.0917C28.9631 26.1139 29.0976 26.1385 29.232 26.1385H29.3134V26.4642C29.3134 26.5456 29.232 26.5456 29.232 26.5456H28.4993C28.3365 26.5456 28.2551 26.627 28.2551 26.7898V27.1155H29.1506C29.232 27.1155 29.232 27.1969 29.232 27.1969V27.5225C29.232 27.6039 29.1506 27.6039 29.1506 27.6039H28.2551V28.011C28.2551 28.1738 28.3365 28.2552 28.4993 28.2552H29.232C29.3134 28.2552 29.3134 28.3366 29.3134 28.3366V28.4994C29.3134 28.5401 29.3134 28.5605 29.3033 28.5707C29.2931 28.5808 29.2727 28.5808 29.232 28.5808C29.0692 28.6622 28.825 28.6622 28.5808 28.6622C28.0923 28.6622 27.6853 28.5808 27.6853 27.9296V26.7898C27.6853 26.1385 28.0923 26.0571 28.5808 26.0571C28.6539 26.0571 28.7436 26.0736 28.8423 26.0917ZM15.1482 17.0207H16.7764C16.8578 17.0207 17.0206 16.9393 17.0206 16.7765L17.4277 14.8226H19.87L20.277 16.7765C20.277 16.8579 20.3584 17.0207 20.5212 17.0207H22.1494C22.2308 17.0207 22.3122 16.9393 22.3122 16.8579V16.7765L20.5212 9.44963C20.3584 8.55413 19.4629 7.98426 18.5674 8.14708C17.7533 7.98426 16.9392 8.55413 16.695 9.44963L14.904 16.7765V16.8579C14.9854 16.9393 15.0668 17.0207 15.1482 17.0207ZM18.6488 9.77527C18.5674 9.77527 18.486 9.85668 18.486 9.93809L17.8347 13.1945H19.5443L18.8116 9.93809C18.8116 9.85668 18.7302 9.77527 18.6488 9.77527Z" fill="white"/>
</svg>
